<svg xmlns="http://www.w3.org/2000/svg" width="211.607" height="138.82" viewBox="0 0 211.607 138.82">
  <g id="Grupo_3670" data-name="Grupo 3670" transform="translate(-868.914 -158.287)">
    <g id="Background_Complete" data-name="Background Complete" transform="translate(879.914 110.38)">
      <g id="Grupo_3616" data-name="Grupo 3616" transform="translate(-11 61.854)">
        <g id="Grupo_3608" data-name="Grupo 3608">
          <rect id="Rect치ngulo_865" data-name="Rect치ngulo 865" width="27.217" height="40.379" transform="matrix(0.225, -0.974, 0.974, 0.225, 0, 26.519)" fill="#f5f5f5"/>
        </g>
        <g id="Grupo_3611" data-name="Grupo 3611" transform="translate(6.176 0.348)">
          <g id="Grupo_3610" data-name="Grupo 3610">
            <g id="Grupo_3609" data-name="Grupo 3609">
              <path id="Trazado_3198" data-name="Trazado 3198" d="M927.484,119.929a2.771,2.771,0,0,1-.448.269l-1.318.707-4.879,2.542-16.2,8.283-.133.068-.093-.118-.226-.285-11.409-14.485-3.425-4.416-.916-1.212a2.945,2.945,0,0,1-.3-.438,2.95,2.95,0,0,1,.358.392l.97,1.17,3.516,4.343,11.493,14.419.225.285-.226-.05,16.247-8.185,4.931-2.438,1.348-.646A2.809,2.809,0,0,1,927.484,119.929Z" transform="translate(-888.139 -110.843)" fill="#e0e0e0"/>
            </g>
          </g>
        </g>
        <g id="Grupo_3613" data-name="Grupo 3613" transform="translate(0.051 13.973)">
          <g id="Grupo_3612" data-name="Grupo 3612">
            <path id="Trazado_3199" data-name="Trazado 3199" d="M879.983,141.884c-.06-.081,3.738-3.033,8.483-6.592s8.642-6.381,8.7-6.3-3.737,3.033-8.483,6.593S880.044,141.965,879.983,141.884Z" transform="translate(-879.982 -128.99)" fill="#e0e0e0"/>
          </g>
        </g>
        <g id="Grupo_3615" data-name="Grupo 3615" transform="translate(30.389 16.663)">
          <g id="Grupo_3614" data-name="Grupo 3614">
            <path id="Trazado_3200" data-name="Trazado 3200" d="M920.391,132.573c.092-.043,2.182,4.241,4.668,9.567s4.428,9.68,4.337,9.722-2.182-4.24-4.669-9.568S920.3,132.616,920.391,132.573Z" transform="translate(-920.388 -132.573)" fill="#e0e0e0"/>
          </g>
        </g>
      </g>
      <g id="Grupo_3625" data-name="Grupo 3625" transform="translate(163.34 47.907)">
        <g id="Grupo_3617" data-name="Grupo 3617">
          <rect id="Rect치ngulo_866" data-name="Rect치ngulo 866" width="31.289" height="21.09" transform="matrix(0.919, -0.395, 0.395, 0.919, 0, 12.353)" fill="#f5f5f5"/>
        </g>
        <g id="Grupo_3620" data-name="Grupo 3620" transform="translate(0.192 0.193)">
          <g id="Grupo_3619" data-name="Grupo 3619">
            <g id="Grupo_3618" data-name="Grupo 3618">
              <path id="Trazado_3201" data-name="Trazado 3201" d="M1098.5,125.164a2.1,2.1,0,0,1-.156.373l-.5,1.045-1.884,3.824c-1.628,3.243-3.857,7.682-6.325,12.6l-.053.1-.112-.031L1089.2,143l-13.766-3.822-4.163-1.19-1.128-.337a2.215,2.215,0,0,1-.388-.137,2.278,2.278,0,0,1,.4.081l1.142.286,4.187,1.1,13.788,3.742.272.074-.164.073,6.4-12.561,1.964-3.783.546-1.021A2.26,2.26,0,0,1,1098.5,125.164Z" transform="translate(-1069.749 -125.164)" fill="#e0e0e0"/>
            </g>
          </g>
        </g>
        <g id="Grupo_3622" data-name="Grupo 3622" transform="translate(8.514 15.992)">
          <g id="Grupo_3621" data-name="Grupo 3621">
            <path id="Trazado_3202" data-name="Trazado 3202" d="M1080.838,162.137c-.075-.023.945-3.608,2.279-8.006s2.476-7.947,2.551-7.925-.945,3.607-2.28,8.007S1080.913,162.159,1080.838,162.137Z" transform="translate(-1080.834 -146.206)" fill="#e0e0e0"/>
          </g>
        </g>
        <g id="Grupo_3624" data-name="Grupo 3624" transform="translate(22.799 11.641)">
          <g id="Grupo_3623" data-name="Grupo 3623">
            <path id="Trazado_3203" data-name="Trazado 3203" d="M1099.86,140.413c.038-.068,3.307,1.65,7.3,3.838s7.2,4.019,7.165,4.088-3.307-1.65-7.3-3.839S1099.822,140.482,1099.86,140.413Z" transform="translate(-1099.859 -140.411)" fill="#e0e0e0"/>
          </g>
        </g>
      </g>
    </g>
    <g id="Device" transform="translate(930.619 183.528)">
      <g id="Grupo_3669" data-name="Grupo 3669">
        <g id="Grupo_3668" data-name="Grupo 3668">
          <g id="Grupo_3655" data-name="Grupo 3655">
            <g id="Grupo_3654" data-name="Grupo 3654">
              <g id="Grupo_3653" data-name="Grupo 3653">
                <g id="Grupo_3646" data-name="Grupo 3646">
                  <g id="Grupo_3628" data-name="Grupo 3628" transform="translate(0.002 41.185)">
                    <g id="Grupo_3627" data-name="Grupo 3627">
                      <g id="Grupo_3626" data-name="Grupo 3626">
                        <path id="Trazado_3204" data-name="Trazado 3204" d="M948.11,263.654l106.485-.995,3.119,72.391-110.265-.793Z" transform="translate(-947.449 -262.659)" fill="#fbbb21"/>
                      </g>
                    </g>
                  </g>
                  <g id="Grupo_3631" data-name="Grupo 3631" transform="translate(0.663)">
                    <g id="Grupo_3630" data-name="Grupo 3630">
                      <g id="Grupo_3629" data-name="Grupo 3629">
                        <path id="Trazado_3205" data-name="Trazado 3205" d="M948.33,249.985,998.643,209.1a5.787,5.787,0,0,1,7.31.008l48.862,39.881" transform="translate(-948.33 -207.805)" fill="#fbbb21"/>
                      </g>
                    </g>
                  </g>
                  <g id="Grupo_3634" data-name="Grupo 3634" transform="translate(0.663)" opacity="0.3">
                    <g id="Grupo_3633" data-name="Grupo 3633">
                      <g id="Grupo_3632" data-name="Grupo 3632">
                        <path id="Trazado_3206" data-name="Trazado 3206" d="M948.33,249.985,998.643,209.1a5.787,5.787,0,0,1,7.31.008l48.862,39.881" transform="translate(-948.33 -207.805)"/>
                      </g>
                    </g>
                  </g>
                  <g id="Grupo_3638" data-name="Grupo 3638" transform="translate(0 71.577)">
                    <g id="Grupo_3637" data-name="Grupo 3637">
                      <g id="Grupo_3636" data-name="Grupo 3636">
                        <g id="Grupo_3635" data-name="Grupo 3635">
                          <path id="Trazado_3207" data-name="Trazado 3207" d="M947.448,344.343c-.133-.125,8.372-9.45,19-20.827s19.346-20.5,19.479-20.379-8.371,9.448-19,20.829S947.582,344.467,947.448,344.343Z" transform="translate(-947.447 -303.136)" fill="#263238"/>
                        </g>
                      </g>
                    </g>
                  </g>
                  <g id="Grupo_3642" data-name="Grupo 3642" transform="translate(73.589 72.477)">
                    <g id="Grupo_3641" data-name="Grupo 3641">
                      <g id="Grupo_3640" data-name="Grupo 3640">
                        <g id="Grupo_3639" data-name="Grupo 3639">
                          <path id="Trazado_3208" data-name="Trazado 3208" d="M1082.135,345.435c-.136.121-8.457-8.981-18.583-20.328s-18.229-20.648-18.093-20.77,8.455,8.98,18.585,20.331S1082.271,345.313,1082.135,345.435Z" transform="translate(-1045.458 -304.335)" fill="#263238"/>
                        </g>
                      </g>
                    </g>
                  </g>
                  <g id="Grupo_3645" data-name="Grupo 3645" transform="translate(0.663 41.185)" opacity="0.5">
                    <g id="Grupo_3644" data-name="Grupo 3644">
                      <g id="Grupo_3643" data-name="Grupo 3643">
                        <path id="Trazado_3209" data-name="Trazado 3209" d="M1054.815,262.659l-53.383,42.828-53.1-41.833" transform="translate(-948.33 -262.659)"/>
                      </g>
                    </g>
                  </g>
                </g>
                <g id="Grupo_3652" data-name="Grupo 3652" transform="translate(5.672 11.374)">
                  <g id="Grupo_3651" data-name="Grupo 3651">
                    <g id="Grupo_3650" data-name="Grupo 3650">
                      <g id="Grupo_3647" data-name="Grupo 3647" transform="translate(0.127 0.197)">
                        <path id="Trazado_3210" data-name="Trazado 3210" d="M955.405,257.77l-.235-33.258,93.24-1.3,1.124,34.991-46.4,36.892Z" transform="translate(-955.17 -223.216)" fill="#fafafa"/>
                      </g>
                      <g id="Grupo_3649" data-name="Grupo 3649">
                        <g id="Grupo_3648" data-name="Grupo 3648">
                          <path id="Trazado_3211" data-name="Trazado 3211" d="M955.363,257.7s.308.222.885.664l2.542,1.96,9.651,7.495,34.746,27.084h-.2l46.384-36.918-.073.157c-.215-6.676-.441-13.678-.67-20.8-.154-4.8-.306-9.538-.454-14.186l.2.188-93.242,1.227.124-.126c.048,10.457.086,18.76.112,24.461.006,2.845.01,5.039.014,6.532q0,1.1,0,1.688c0,.38-.012.577-.012.577s-.012-.187-.02-.562-.016-.943-.028-1.674c-.018-1.49-.044-3.678-.079-6.516-.054-5.711-.134-14.029-.234-24.5v-.125h.125l93.239-1.365.191,0,.006.191c.15,4.648.3,9.389.457,14.186.228,7.127.452,14.13.665,20.805l0,.1-.077.061-46.425,36.866-.1.079-.1-.078-34.7-27.236-9.583-7.549-2.5-1.984C955.641,257.94,955.363,257.7,955.363,257.7Z" transform="translate(-955.001 -222.953)" fill="#263238"/>
                        </g>
                      </g>
                    </g>
                  </g>
                </g>
              </g>
            </g>
          </g>
          <g id="Grupo_3657" data-name="Grupo 3657" transform="translate(20.642 28.281)">
            <g id="Grupo_3656" data-name="Grupo 3656">
              <path id="Trazado_3212" data-name="Trazado 3212" d="M1038.635,245.537c0,.108-14.258.312-31.845.455s-31.85.172-31.851.064,14.256-.312,31.848-.455S1038.634,245.429,1038.635,245.537Z" transform="translate(-974.939 -245.472)" fill="#263238"/>
            </g>
          </g>
          <g id="Grupo_3659" data-name="Grupo 3659" transform="translate(20.661 37.675)">
            <g id="Grupo_3658" data-name="Grupo 3658">
              <path id="Trazado_3213" data-name="Trazado 3213" d="M1038.661,258.049c0,.108-14.258.312-31.845.455s-31.85.172-31.851.064,14.256-.312,31.848-.455S1038.66,257.941,1038.661,258.049Z" transform="translate(-974.965 -257.984)" fill="#263238"/>
            </g>
          </g>
          <g id="Grupo_3661" data-name="Grupo 3661" transform="translate(20.684 48.503)">
            <g id="Grupo_3660" data-name="Grupo 3660">
              <path id="Trazado_3214" data-name="Trazado 3214" d="M1038.691,272.47c0,.108-14.258.312-31.845.455s-31.85.172-31.851.064,14.256-.312,31.848-.455S1038.69,272.362,1038.691,272.47Z" transform="translate(-974.995 -272.405)" fill="#263238"/>
            </g>
          </g>
          <g id="Grupo_3663" data-name="Grupo 3663" transform="translate(23.634 59.328)">
            <g id="Grupo_3662" data-name="Grupo 3662">
              <path id="Trazado_3215" data-name="Trazado 3215" d="M1039.693,286.891c0,.108-13.6.306-30.38.443s-30.386.161-30.387.053,13.6-.306,30.383-.443S1039.692,286.782,1039.693,286.891Z" transform="translate(-978.925 -286.823)" fill="#263238"/>
            </g>
          </g>
          <g id="Grupo_3665" data-name="Grupo 3665" transform="translate(35.732 68.835)">
            <g id="Grupo_3664" data-name="Grupo 3664">
              <path id="Trazado_3216" data-name="Trazado 3216" d="M1031.8,299.574a1.37,1.37,0,0,1-.373.043l-1.071.046-3.939.1-13,.236c-5.077.1-9.674.125-13,.122l-3.94-.026-1.071-.028a.189.189,0,1,1,0-.079l1.071-.046,3.939-.1,13-.236c5.076-.1,9.672-.125,13-.122l3.941.026,1.071.027A1.372,1.372,0,0,1,1031.8,299.574Z" transform="translate(-995.037 -299.485)" fill="#263238"/>
            </g>
          </g>
          <g id="Grupo_3667" data-name="Grupo 3667" transform="translate(46.931 77.903)">
            <g id="Grupo_3666" data-name="Grupo 3666">
              <path id="Trazado_3217" data-name="Trazado 3217" d="M1023.534,311.745a117.954,117.954,0,0,1-13.581.028,117.954,117.954,0,0,1,13.581-.028Z" transform="translate(-1009.953 -311.562)" fill="#263238"/>
            </g>
          </g>
        </g>
      </g>
    </g>
  </g>
</svg>
