<svg id="message" xmlns="http://www.w3.org/2000/svg" width="16.089" height="11.023" viewBox="0 0 16.089 11.023">
  <g id="Grupo_3360" data-name="Grupo 3360">
    <path id="Trazado_3093" data-name="Trazado 3093" d="M14.675,80.609H1.414A1.416,1.416,0,0,0,0,82.023v8.195a1.416,1.416,0,0,0,1.414,1.414H14.675a1.416,1.416,0,0,0,1.414-1.414V82.023A1.416,1.416,0,0,0,14.675,80.609Zm-.185.943-.189.157-5.7,4.743a.877.877,0,0,1-1.122,0l-5.7-4.743L1.6,81.552ZM.943,82.232,5.584,86.1.943,89.186Zm13.732,8.457H1.414a.472.472,0,0,1-.462-.377L6.34,86.726l.541.45a1.819,1.819,0,0,0,2.329,0l.541-.45,5.388,3.586A.472.472,0,0,1,14.675,90.689Zm.471-1.5L10.505,86.1l4.641-3.865Z" transform="translate(0 -80.609)" fill="#8189b0"/>
  </g>
</svg>
