<svg id="placeholder" xmlns="http://www.w3.org/2000/svg" width="11.313" height="16.089" viewBox="0 0 11.313 16.089">
  <g id="Grupo_3362" data-name="Grupo 3362">
    <g id="Grupo_3361" data-name="Grupo 3361">
      <path id="Trazado_3094" data-name="Trazado 3094" d="M81.656,0a5.657,5.657,0,0,0-4.812,8.631l4.49,7.236a.471.471,0,0,0,.4.223h0a.471.471,0,0,0,.4-.229l4.376-7.306A5.658,5.658,0,0,0,81.656,0Zm4.05,8.07-3.978,6.642L77.646,8.134a4.717,4.717,0,1,1,8.06-.064Z" transform="translate(-76)" fill="#8189b0"/>
    </g>
  </g>
  <g id="Grupo_3364" data-name="Grupo 3364" transform="translate(2.828 2.828)">
    <g id="Grupo_3363" data-name="Grupo 3363">
      <path id="Trazado_3095" data-name="Trazado 3095" d="M168.828,90a2.828,2.828,0,1,0,2.828,2.828A2.831,2.831,0,0,0,168.828,90Zm0,4.72a1.892,1.892,0,1,1,1.889-1.892A1.893,1.893,0,0,1,168.828,94.72Z" transform="translate(-166 -90)" fill="#8189b0"/>
    </g>
  </g>
</svg>
