<svg id="telephone" xmlns="http://www.w3.org/2000/svg" width="15.108" height="15.165" viewBox="0 0 15.108 15.165">
  <path id="Trazado_3096" data-name="Trazado 3096" d="M3.973,10.081a16.089,16.089,0,0,0,5.352,4.192,8.329,8.329,0,0,0,2.995.886c.072,0,.141.006.214.006a2.48,2.48,0,0,0,1.923-.826.069.069,0,0,0,.013-.016,8.1,8.1,0,0,1,.606-.628c.148-.141.3-.289.443-.44A1.517,1.517,0,0,0,15.512,11L13.624,9.107A1.529,1.529,0,0,0,12.518,8.6,1.58,1.58,0,0,0,11.4,9.1l-1.125,1.125c-.1-.06-.211-.113-.311-.163a3.886,3.886,0,0,1-.346-.189A11.906,11.906,0,0,1,6.773,7.287a6.856,6.856,0,0,1-.962-1.534c.3-.267.572-.547.839-.82.094-.1.192-.195.289-.292A1.611,1.611,0,0,0,7.461,3.51,1.6,1.6,0,0,0,6.94,2.379L6,1.442c-.11-.11-.214-.217-.321-.327C5.475.9,5.258.682,5.045.484A1.567,1.567,0,0,0,3.939,0,1.613,1.613,0,0,0,2.82.487L1.645,1.662a2.415,2.415,0,0,0-.72,1.546,5.816,5.816,0,0,0,.437,2.514A14.625,14.625,0,0,0,3.973,10.081ZM1.692,3.274a1.662,1.662,0,0,1,.5-1.068L3.36,1.037A.846.846,0,0,1,3.939.77a.8.8,0,0,1,.566.273c.211.195.409.4.622.616.107.11.217.22.327.333l.936.936a.853.853,0,0,1,.3.588.853.853,0,0,1-.3.588c-.1.1-.195.2-.292.3-.292.3-.566.575-.867.842l-.016.016a.614.614,0,0,0-.157.7c0,.009.006.016.009.025a7.4,7.4,0,0,0,1.1,1.794A12.566,12.566,0,0,0,9.2,10.533a4.5,4.5,0,0,0,.415.226,3.886,3.886,0,0,1,.346.189l.035.019a.657.657,0,0,0,.3.079.666.666,0,0,0,.468-.214l1.175-1.175a.832.832,0,0,1,.575-.28.789.789,0,0,1,.556.28l1.895,1.892a.758.758,0,0,1-.009,1.185c-.132.141-.27.277-.418.418a9.05,9.05,0,0,0-.657.682,1.725,1.725,0,0,1-1.348.572c-.053,0-.11,0-.163-.006a7.567,7.567,0,0,1-2.709-.811A15.284,15.284,0,0,1,4.57,9.6,14,14,0,0,1,2.088,5.465,5.068,5.068,0,0,1,1.692,3.274Z" transform="translate(-0.912 0)" fill="#8189b0"/>
</svg>
