<svg id="united-states-of-america" xmlns="http://www.w3.org/2000/svg" width="32.343" height="32.344" viewBox="0 0 32.343 32.344">
  <g id="Grupo_3257" data-name="Grupo 3257" transform="translate(0.067)">
    <rect id="Rectángulo_419" data-name="Rectángulo 419" width="32.199" transform="translate(0.006 17.684)" fill="#c42126"/>
    <rect id="Rectángulo_420" data-name="Rectángulo 420" width="28.844" transform="translate(1.683 8.856)" fill="#c42126"/>
    <rect id="Rectángulo_421" data-name="Rectángulo 421" width="31.137" transform="translate(0.536 11.798)" fill="#c42126"/>
    <path id="Trazado_2974" data-name="Trazado 2974" d="M101.779,431.346h0Z" transform="translate(-94.895 -401.892)" fill="#c42126"/>
    <path id="Trazado_2975" data-name="Trazado 2975" d="M223.935,0c-.318,0-.633.011-.946.029h1.891C224.567.011,224.252,0,223.935,0Z" transform="translate(-207.83)" fill="#c42126"/>
    <rect id="Rectángulo_422" data-name="Rectángulo 422" width="32.209" transform="translate(0 14.741)" fill="#c42126"/>
  </g>
  <path id="Trazado_2976" data-name="Trazado 2976" d="M289.908,46.467h7.722a16.254,16.254,0,0,0-3.164-2.942h-5.8A15.374,15.374,0,0,1,289.908,46.467Z" transform="translate(-268.956 -40.553)" fill="#e7e7e7"/>
  <path id="Trazado_2977" data-name="Trazado 2977" d="M246.487,3.373h5.8A16.083,16.083,0,0,0,243.894.43h-.5C244.863.615,245.537,1.7,246.487,3.373Z" transform="translate(-226.777 -0.401)" fill="#dc3027"/>
  <path id="Trazado_2978" data-name="Trazado 2978" d="M327.971,132.652a16.065,16.065,0,0,0-1.147-2.942H317.94c.18.945.322,1.931.427,2.942Z" transform="translate(-296.23 -120.853)" fill="#e7e7e7"/>
  <path id="Trazado_2979" data-name="Trazado 2979" d="M300.619,89.554H310a16.182,16.182,0,0,0-1.92-2.942h-8.2A25.965,25.965,0,0,1,300.619,89.554Z" transform="translate(-279.409 -80.698)" fill="#dc3027"/>
  <path id="Trazado_2980" data-name="Trazado 2980" d="M329.178,218.835h9.794c.047-.5.073-1,.073-1.512,0-.482-.025-.959-.067-1.43h-9.8C329.212,216.871,329.212,217.857,329.178,218.835Z" transform="translate(-306.701 -201.151)" fill="#e7e7e7"/>
  <path id="Trazado_2981" data-name="Trazado 2981" d="M328.707,175.744a16.108,16.108,0,0,0-.536-2.942H318.154c.1.963.167,1.949.2,2.942Z" transform="translate(-296.43 -161.003)" fill="#dc3027"/>
  <path id="Trazado_2982" data-name="Trazado 2982" d="M315.465,305.017h9.011a16.041,16.041,0,0,0,1.166-2.942H315.9C315.793,303.087,315.648,304.074,315.465,305.017Z" transform="translate(-293.924 -281.449)" fill="#e7e7e7"/>
  <path id="Trazado_2983" data-name="Trazado 2983" d="M331.45,261.93a16.073,16.073,0,0,0,.554-2.942H321.9c-.034.994-.1,1.979-.206,2.942Z" transform="translate(-299.733 -241.304)" fill="#dc3027"/>
  <path id="Trazado_2984" data-name="Trazado 2984" d="M294.932,391.2a16.266,16.266,0,0,0,3.211-2.942h-7.588a15.027,15.027,0,0,1-1.264,2.942Z" transform="translate(-269.538 -361.75)" fill="#e7e7e7"/>
  <g id="Grupo_3258" data-name="Grupo 3258" transform="translate(15.488 23.569)">
    <path id="Trazado_2985" data-name="Trazado 2985" d="M303.625,348.109H311.5a16.2,16.2,0,0,0,1.946-2.942h-9.077A25.6,25.6,0,0,1,303.625,348.109Z" transform="translate(-298.38 -345.167)" fill="#dc3027"/>
    <path id="Trazado_2986" data-name="Trazado 2986" d="M226.916,473.461l-.1,0Z" transform="translate(-226.818 -464.697)" fill="#dc3027"/>
    <path id="Trazado_2987" data-name="Trazado 2987" d="M236.837,434.25a16.1,16.1,0,0,0,9.222-2.89h-5.853C239.167,433.15,238.482,434.25,236.837,434.25Z" transform="translate(-236.153 -425.475)" fill="#dc3027"/>
  </g>
  <path id="Trazado_2988" data-name="Trazado 2988" d="M228.841,473.521c-.2,0-.391,0-.586-.011C228.452,473.516,228.647,473.521,228.841,473.521Z" transform="translate(-212.669 -441.177)" fill="#c42126"/>
  <path id="Trazado_2989" data-name="Trazado 2989" d="M70.323,43.525H56.912a16.255,16.255,0,0,0-3.165,2.942H71.564A15.374,15.374,0,0,0,70.323,43.525Z" transform="translate(-50.077 -40.553)" fill="#f3f4f5"/>
  <path id="Trazado_2990" data-name="Trazado 2990" d="M100.092,3.373H113.5C112.553,1.7,111.344.615,109.877.43h-1.393A16.081,16.081,0,0,0,100.092,3.373Z" transform="translate(-93.258 -0.401)" fill="#e73625"/>
  <path id="Trazado_2991" data-name="Trazado 2991" d="M8.835,132.652H30.879c-.105-1.011-.247-2-.427-2.942H9.982A16.062,16.062,0,0,0,8.835,132.652Z" transform="translate(-8.232 -120.853)" fill="#f3f4f5"/>
  <path id="Trazado_2992" data-name="Trazado 2992" d="M27.556,86.609a16.192,16.192,0,0,0-1.919,2.942H46.106a25.93,25.93,0,0,0-.733-2.942Z" transform="translate(-23.887 -80.695)" fill="#e73625"/>
  <path id="Trazado_2993" data-name="Trazado 2993" d="M0,217.326c0,.51.027,1.014.073,1.512H22.846c.034-.978.034-1.963,0-2.942H.069C.027,216.368,0,216.844,0,217.326Z" transform="translate(-0.002 -201.154)" fill="#f3f4f5"/>
  <path id="Trazado_2994" data-name="Trazado 2994" d="M.978,175.744h22.78c-.032-.993-.1-1.978-.2-2.942H1.514A16.087,16.087,0,0,0,.978,175.744Z" transform="translate(-0.911 -161.003)" fill="#e73625"/>
  <path id="Trazado_2995" data-name="Trazado 2995" d="M31.187,302.072H9.175a16.055,16.055,0,0,0,1.166,2.942H30.752C30.935,304.071,31.08,303.084,31.187,302.072Z" transform="translate(-8.549 -281.446)" fill="#f3f4f5"/>
  <path id="Trazado_2996" data-name="Trazado 2996" d="M1.622,261.93H23.634c.1-.963.171-1.949.206-2.942H1.068A16.092,16.092,0,0,0,1.622,261.93Z" transform="translate(-0.995 -241.304)" fill="#e73625"/>
  <path id="Trazado_2997" data-name="Trazado 2997" d="M57.964,391.2H71.211a15.023,15.023,0,0,0,1.264-2.942H54.753A16.259,16.259,0,0,0,57.964,391.2Z" transform="translate(-51.014 -361.75)" fill="#f3f4f5"/>
  <g id="Grupo_3259" data-name="Grupo 3259" transform="translate(1.793 23.569)">
    <path id="Trazado_2998" data-name="Trazado 2998" d="M26.254,345.166a16.2,16.2,0,0,0,1.946,2.942H45.923a25.654,25.654,0,0,0,.742-2.942Z" transform="translate(-26.254 -345.166)" fill="#e73625"/>
    <path id="Trazado_2999" data-name="Trazado 2999" d="M110.33,434.233l.1,0c.195.007.39.011.586.011,1.645,0,2.986-1.1,4.025-2.89H101.793A16.087,16.087,0,0,0,110.33,434.233Z" transform="translate(-96.635 -425.474)" fill="#e73625"/>
  </g>
  <path id="Trazado_3000" data-name="Trazado 3000" d="M16.777.123A16.167,16.167,0,0,0,1.008,14.829H16.777V.123Z" transform="translate(-0.939 -0.115)" fill="#283991"/>
  <g id="Grupo_3260" data-name="Grupo 3260" transform="translate(0.544 1.121)">
    <path id="Trazado_3001" data-name="Trazado 3001" d="M33.136,134.187l.246.759h.8l-.646.469.247.759-.645-.469-.645.469.246-.759-.646-.469h.8Z" transform="translate(-30.444 -126.145)" fill="#efefef"/>
    <path id="Trazado_3002" data-name="Trazado 3002" d="M33.136,173.438l.246.759h.8l-.646.469.247.759-.645-.469-.645.469.246-.759-.646-.469h.8Z" transform="translate(-30.444 -162.716)" fill="#efefef"/>
    <path id="Trazado_3003" data-name="Trazado 3003" d="M72.39,75.3l.246.759h.8l-.646.469.246.759-.645-.469-.646.469.246-.759-.646-.469h.8Z" transform="translate(-67.018 -71.275)" fill="#efefef"/>
    <path id="Trazado_3004" data-name="Trazado 3004" d="M72.39,114.554l.246.759h.8l-.646.469.246.759-.645-.469-.646.469.246-.759-.646-.469h.8Z" transform="translate(-67.018 -107.853)" fill="#efefef"/>
    <path id="Trazado_3005" data-name="Trazado 3005" d="M72.39,153.812l.246.759h.8l-.646.469.246.759-.645-.469-.646.469.246-.759-.646-.469h.8Z" transform="translate(-67.018 -144.43)" fill="#efefef"/>
    <path id="Trazado_3006" data-name="Trazado 3006" d="M8.627,165.4l-.247-.759.646-.469h-.8l-.018-.055c-.088.271-.167.545-.24.822l.011-.008Z" transform="translate(-7.971 -154.03)" fill="#efefef"/>
    <path id="Trazado_3007" data-name="Trazado 3007" d="M37.174,96.913l.645-.469.646.469-.247-.759.646-.469h-.8l-.246-.759-.246.759h-.294c-.055.083-.107.166-.161.25l.3.219Z" transform="translate(-35.128 -89.565)" fill="#efefef"/>
    <path id="Trazado_3008" data-name="Trazado 3008" d="M77.832,47.912l.645.469-.246-.759.645-.469h-.461q-.587.439-1.132.929l-.1.3Z" transform="translate(-72.46 -45.054)" fill="#efefef"/>
    <path id="Trazado_3009" data-name="Trazado 3009" d="M116.452,27.361l.646-.469.645.469L117.5,26.6l.645-.469h-.8l-.033-.1c-.27.138-.538.282-.8.435l.187.136Z" transform="translate(-109.045 -25.374)" fill="#efefef"/>
    <path id="Trazado_3010" data-name="Trazado 3010" d="M111.649,55.671l.246.758h.8l-.646.469.246.759-.645-.469-.646.469.246-.759-.646-.469h.8Z" transform="translate(-103.596 -52.99)" fill="#efefef"/>
    <path id="Trazado_3011" data-name="Trazado 3011" d="M111.649,94.929l.246.758h.8l-.646.469.246.759-.645-.469-.646.469.246-.759-.646-.469h.8Z" transform="translate(-103.596 -89.568)" fill="#efefef"/>
    <path id="Trazado_3012" data-name="Trazado 3012" d="M111.649,134.187l.246.759h.8l-.646.469.246.759-.645-.469-.646.469.246-.759-.646-.469h.8Z" transform="translate(-103.596 -126.145)" fill="#efefef"/>
    <path id="Trazado_3013" data-name="Trazado 3013" d="M111.649,173.438l.246.759h.8l-.646.469.246.759-.645-.469-.646.469.246-.759-.646-.469h.8Z" transform="translate(-103.596 -162.716)" fill="#efefef"/>
    <path id="Trazado_3014" data-name="Trazado 3014" d="M150.907,36.038l.246.759h.8l-.645.469.246.759-.645-.469-.646.469.247-.759-.646-.469h.8Z" transform="translate(-140.173 -34.698)" fill="#efefef"/>
    <path id="Trazado_3015" data-name="Trazado 3015" d="M150.907,75.3l.246.759h.8l-.645.469.246.759-.645-.469-.646.469.247-.759-.646-.469h.8Z" transform="translate(-140.173 -71.275)" fill="#efefef"/>
    <path id="Trazado_3016" data-name="Trazado 3016" d="M150.907,114.554l.246.759h.8l-.645.469.246.759-.645-.469-.646.469.247-.759-.646-.469h.8Z" transform="translate(-140.173 -107.853)" fill="#efefef"/>
    <path id="Trazado_3017" data-name="Trazado 3017" d="M150.907,153.812l.246.759h.8l-.645.469.246.759-.645-.469-.646.469.247-.759-.646-.469h.8Z" transform="translate(-140.173 -144.43)" fill="#efefef"/>
    <path id="Trazado_3018" data-name="Trazado 3018" d="M190.165,16.413l.246.759h.8l-.646.469.246.759-.645-.469-.646.469.247-.759-.646-.469h.8Z" transform="translate(-176.751 -16.413)" fill="#efefef"/>
    <path id="Trazado_3019" data-name="Trazado 3019" d="M190.165,55.671l.246.758h.8l-.646.469.246.759-.645-.469-.646.469.247-.759-.646-.469h.8Z" transform="translate(-176.751 -52.99)" fill="#efefef"/>
    <path id="Trazado_3020" data-name="Trazado 3020" d="M190.165,94.929l.246.758h.8l-.646.469.246.759-.645-.469-.646.469.247-.759-.646-.469h.8Z" transform="translate(-176.751 -89.568)" fill="#efefef"/>
    <path id="Trazado_3021" data-name="Trazado 3021" d="M190.165,134.187l.246.759h.8l-.646.469.246.759-.645-.469-.646.469.247-.759-.646-.469h.8Z" transform="translate(-176.751 -126.145)" fill="#efefef"/>
    <path id="Trazado_3022" data-name="Trazado 3022" d="M190.165,173.438l.246.759h.8l-.646.469.246.759-.645-.469-.646.469.247-.759-.646-.469h.8Z" transform="translate(-176.751 -162.716)" fill="#efefef"/>
  </g>
</svg>
